G04 #@! TF.GenerationSoftware,KiCad,Pcbnew,9.0.1*
G04 #@! TF.CreationDate,2025-05-08T20:40:16+10:00*
G04 #@! TF.ProjectId,MooresESP32,4d6f6f72-6573-4455-9350-33322e6b6963,rev?*
G04 #@! TF.SameCoordinates,Original*
G04 #@! TF.FileFunction,Copper,L2,Bot*
G04 #@! TF.FilePolarity,Positive*
%FSLAX46Y46*%
G04 Gerber Fmt 4.6, Leading zero omitted, Abs format (unit mm)*
G04 Created by KiCad (PCBNEW 9.0.1) date 2025-05-08 20:40:16*
%MOMM*%
%LPD*%
G01*
G04 APERTURE LIST*
G04 Aperture macros list*
%AMRoundRect*
0 Rectangle with rounded corners*
0 $1 Rounding radius*
0 $2 $3 $4 $5 $6 $7 $8 $9 X,Y pos of 4 corners*
0 Add a 4 corners polygon primitive as box body*
4,1,4,$2,$3,$4,$5,$6,$7,$8,$9,$2,$3,0*
0 Add four circle primitives for the rounded corners*
1,1,$1+$1,$2,$3*
1,1,$1+$1,$4,$5*
1,1,$1+$1,$6,$7*
1,1,$1+$1,$8,$9*
0 Add four rect primitives between the rounded corners*
20,1,$1+$1,$2,$3,$4,$5,0*
20,1,$1+$1,$4,$5,$6,$7,0*
20,1,$1+$1,$6,$7,$8,$9,0*
20,1,$1+$1,$8,$9,$2,$3,0*%
G04 Aperture macros list end*
G04 #@! TA.AperFunction,ComponentPad*
%ADD10C,2.000000*%
G04 #@! TD*
G04 #@! TA.AperFunction,ComponentPad*
%ADD11R,1.700000X1.700000*%
G04 #@! TD*
G04 #@! TA.AperFunction,ComponentPad*
%ADD12O,1.700000X1.700000*%
G04 #@! TD*
G04 #@! TA.AperFunction,ComponentPad*
%ADD13R,3.500000X3.500000*%
G04 #@! TD*
G04 #@! TA.AperFunction,ComponentPad*
%ADD14RoundRect,0.750000X-0.750000X-1.000000X0.750000X-1.000000X0.750000X1.000000X-0.750000X1.000000X0*%
G04 #@! TD*
G04 #@! TA.AperFunction,ComponentPad*
%ADD15RoundRect,0.875000X-0.875000X-0.875000X0.875000X-0.875000X0.875000X0.875000X-0.875000X0.875000X0*%
G04 #@! TD*
G04 #@! TA.AperFunction,ComponentPad*
%ADD16RoundRect,0.250000X0.725000X-0.600000X0.725000X0.600000X-0.725000X0.600000X-0.725000X-0.600000X0*%
G04 #@! TD*
G04 #@! TA.AperFunction,ComponentPad*
%ADD17O,1.950000X1.700000*%
G04 #@! TD*
G04 #@! TA.AperFunction,ViaPad*
%ADD18C,0.800000*%
G04 #@! TD*
G04 #@! TA.AperFunction,Conductor*
%ADD19C,0.250000*%
G04 #@! TD*
G04 APERTURE END LIST*
D10*
G04 #@! TO.P,SW1,1,1*
G04 #@! TO.N,+3V3*
X165700000Y-82300000D03*
X172200000Y-82300000D03*
G04 #@! TO.P,SW1,2,2*
G04 #@! TO.N,BUTTON_1*
X165700000Y-86800000D03*
X172200000Y-86800000D03*
G04 #@! TD*
D11*
G04 #@! TO.P,J8,1,Pin_1*
G04 #@! TO.N,GND*
X179000000Y-109160000D03*
D12*
G04 #@! TO.P,J8,2,Pin_2*
G04 #@! TO.N,BOOT*
X179000000Y-106620000D03*
G04 #@! TO.P,J8,3,Pin_3*
G04 #@! TO.N,EN*
X179000000Y-104080000D03*
G04 #@! TO.P,J8,4,Pin_4*
G04 #@! TO.N,RX*
X179000000Y-101540000D03*
G04 #@! TO.P,J8,5,Pin_5*
G04 #@! TO.N,TX*
X179000000Y-99000000D03*
G04 #@! TO.P,J8,6,Pin_6*
G04 #@! TO.N,+3V3*
X179000000Y-96460000D03*
G04 #@! TD*
D10*
G04 #@! TO.P,SW2,1,1*
G04 #@! TO.N,+3V3*
X146250000Y-108239902D03*
X146250000Y-101739902D03*
G04 #@! TO.P,SW2,2,2*
G04 #@! TO.N,BUTTON_2*
X150750000Y-108239902D03*
X150750000Y-101739902D03*
G04 #@! TD*
G04 #@! TO.P,SW3,1,1*
G04 #@! TO.N,+3V3*
X124750000Y-123250000D03*
X131250000Y-123250000D03*
G04 #@! TO.P,SW3,2,2*
G04 #@! TO.N,BUTTON_3*
X124750000Y-127750000D03*
X131250000Y-127750000D03*
G04 #@! TD*
D13*
G04 #@! TO.P,J1,1*
G04 #@! TO.N,GND*
X127600000Y-105000000D03*
D14*
G04 #@! TO.P,J1,2*
G04 #@! TO.N,+5V*
X121600000Y-105000000D03*
D15*
G04 #@! TO.P,J1,3*
G04 #@! TO.N,unconnected-(J1-Pad3)*
X124600000Y-100300000D03*
G04 #@! TD*
D16*
G04 #@! TO.P,J3,1,Pin_1*
G04 #@! TO.N,+5V*
X135467500Y-107500000D03*
D17*
G04 #@! TO.P,J3,2,Pin_2*
G04 #@! TO.N,Net-(J3-Pin_2)*
X135467500Y-105000000D03*
G04 #@! TO.P,J3,3,Pin_3*
G04 #@! TO.N,GND*
X135467500Y-102500000D03*
G04 #@! TD*
D18*
G04 #@! TO.N,EN*
X158500000Y-117500000D03*
G04 #@! TO.N,RX*
X158500000Y-112900000D03*
G04 #@! TO.N,TX*
X158500000Y-111400000D03*
G04 #@! TD*
D19*
G04 #@! TO.N,+3V3*
X165700000Y-82300000D02*
X172200000Y-82300000D01*
X179000000Y-89100000D02*
X179000000Y-96460000D01*
X146250000Y-108250000D02*
X131250000Y-123250000D01*
X165700000Y-82300000D02*
X146250000Y-101750000D01*
X172200000Y-82300000D02*
X179000000Y-89100000D01*
X124750000Y-123250000D02*
X131250000Y-123250000D01*
X146250000Y-108239902D02*
X146250000Y-101739902D01*
G04 #@! TO.N,EN*
X179000000Y-104080000D02*
X163420000Y-104080000D01*
X162000000Y-105500000D02*
X162000000Y-114000000D01*
X162000000Y-114000000D02*
X158500000Y-117500000D01*
X163420000Y-104080000D02*
X162000000Y-105500000D01*
G04 #@! TO.N,BUTTON_1*
X165700000Y-86800000D02*
X172200000Y-86800000D01*
G04 #@! TO.N,BUTTON_2*
X150751468Y-108250000D02*
X150751468Y-101750000D01*
G04 #@! TO.N,BUTTON_3*
X124750000Y-127750000D02*
X131250000Y-127750000D01*
G04 #@! TO.N,RX*
X164540000Y-101540000D02*
X179000000Y-101540000D01*
X161000000Y-105080000D02*
X164540000Y-101540000D01*
X158600000Y-112900000D02*
X161000000Y-110500000D01*
X161000000Y-110500000D02*
X161000000Y-105080000D01*
X158500000Y-112900000D02*
X158600000Y-112900000D01*
G04 #@! TO.N,TX*
X158600000Y-111400000D02*
X160000000Y-110000000D01*
X160000000Y-110000000D02*
X160000000Y-104500000D01*
X158500000Y-111400000D02*
X158600000Y-111400000D01*
X165500000Y-99000000D02*
X179000000Y-99000000D01*
X160000000Y-104500000D02*
X165500000Y-99000000D01*
G04 #@! TD*
G04 #@! TA.AperFunction,Conductor*
G04 #@! TO.N,GND*
G36*
X181942539Y-71520185D02*
G01*
X181988294Y-71572989D01*
X181999500Y-71624500D01*
X181999500Y-120124000D01*
X181979815Y-120191039D01*
X181927011Y-120236794D01*
X181875500Y-120248000D01*
X141175000Y-120248000D01*
X141175000Y-138375500D01*
X141155315Y-138442539D01*
X141102511Y-138488294D01*
X141051000Y-138499500D01*
X115124500Y-138499500D01*
X115057461Y-138479815D01*
X115011706Y-138427011D01*
X115000500Y-138375500D01*
X115000500Y-131831491D01*
X118499500Y-131831491D01*
X118499500Y-132168508D01*
X118537231Y-132503381D01*
X118537233Y-132503397D01*
X118612223Y-132831953D01*
X118612227Y-132831965D01*
X118723532Y-133150054D01*
X118869752Y-133453683D01*
X118869754Y-133453686D01*
X119049054Y-133739039D01*
X119259175Y-134002523D01*
X119497477Y-134240825D01*
X119760961Y-134450946D01*
X120046314Y-134630246D01*
X120349949Y-134776469D01*
X120588848Y-134860063D01*
X120668034Y-134887772D01*
X120668046Y-134887776D01*
X120996606Y-134962767D01*
X121331492Y-135000499D01*
X121331493Y-135000500D01*
X121331496Y-135000500D01*
X121668507Y-135000500D01*
X121668507Y-135000499D01*
X122003394Y-134962767D01*
X122331954Y-134887776D01*
X122650051Y-134776469D01*
X122953686Y-134630246D01*
X123239039Y-134450946D01*
X123502523Y-134240825D01*
X123740825Y-134002523D01*
X123950946Y-133739039D01*
X124130246Y-133453686D01*
X124276469Y-133150051D01*
X124387776Y-132831954D01*
X124462767Y-132503394D01*
X124500500Y-132168504D01*
X124500500Y-131831496D01*
X124462767Y-131496606D01*
X124387776Y-131168046D01*
X124276469Y-130849949D01*
X124130246Y-130546314D01*
X123950946Y-130260961D01*
X123740825Y-129997477D01*
X123502523Y-129759175D01*
X123239039Y-129549054D01*
X122953686Y-129369754D01*
X122953683Y-129369752D01*
X122650054Y-129223532D01*
X122331965Y-129112227D01*
X122331953Y-129112223D01*
X122003397Y-129037233D01*
X122003381Y-129037231D01*
X121668508Y-128999500D01*
X121668504Y-128999500D01*
X121331496Y-128999500D01*
X121331491Y-128999500D01*
X120996618Y-129037231D01*
X120996602Y-129037233D01*
X120668046Y-129112223D01*
X120668034Y-129112227D01*
X120349945Y-129223532D01*
X120046316Y-129369752D01*
X119760962Y-129549053D01*
X119497477Y-129759174D01*
X119259174Y-129997477D01*
X119049053Y-130260962D01*
X118869752Y-130546316D01*
X118723532Y-130849945D01*
X118612227Y-131168034D01*
X118612223Y-131168046D01*
X118537233Y-131496602D01*
X118537231Y-131496618D01*
X118499500Y-131831491D01*
X115000500Y-131831491D01*
X115000500Y-127631902D01*
X123249500Y-127631902D01*
X123249500Y-127868097D01*
X123286446Y-128101368D01*
X123359433Y-128325996D01*
X123419155Y-128443205D01*
X123466657Y-128536433D01*
X123605483Y-128727510D01*
X123772490Y-128894517D01*
X123963567Y-129033343D01*
X123971202Y-129037233D01*
X124174003Y-129140566D01*
X124174005Y-129140566D01*
X124174008Y-129140568D01*
X124294412Y-129179689D01*
X124398631Y-129213553D01*
X124631903Y-129250500D01*
X124631908Y-129250500D01*
X124868097Y-129250500D01*
X125101368Y-129213553D01*
X125325992Y-129140568D01*
X125536433Y-129033343D01*
X125727510Y-128894517D01*
X125894517Y-128727510D01*
X126033343Y-128536433D01*
X126080845Y-128443205D01*
X126128820Y-128392409D01*
X126191330Y-128375500D01*
X129808670Y-128375500D01*
X129875709Y-128395185D01*
X129919155Y-128443205D01*
X129966657Y-128536433D01*
X130105483Y-128727510D01*
X130272490Y-128894517D01*
X130463567Y-129033343D01*
X130471202Y-129037233D01*
X130674003Y-129140566D01*
X130674005Y-129140566D01*
X130674008Y-129140568D01*
X130794412Y-129179689D01*
X130898631Y-129213553D01*
X131131903Y-129250500D01*
X131131908Y-129250500D01*
X131368097Y-129250500D01*
X131601368Y-129213553D01*
X131825992Y-129140568D01*
X132036433Y-129033343D01*
X132227510Y-128894517D01*
X132394517Y-128727510D01*
X132533343Y-128536433D01*
X132640568Y-128325992D01*
X132713553Y-128101368D01*
X132750500Y-127868097D01*
X132750500Y-127631902D01*
X132713553Y-127398631D01*
X132640566Y-127174003D01*
X132533342Y-126963566D01*
X132394517Y-126772490D01*
X132227510Y-126605483D01*
X132036433Y-126466657D01*
X131825996Y-126359433D01*
X131601368Y-126286446D01*
X131368097Y-126249500D01*
X131368092Y-126249500D01*
X131131908Y-126249500D01*
X131131903Y-126249500D01*
X130898631Y-126286446D01*
X130674003Y-126359433D01*
X130463566Y-126466657D01*
X130354550Y-126545862D01*
X130272490Y-126605483D01*
X130272488Y-126605485D01*
X130272487Y-126605485D01*
X130105485Y-126772487D01*
X130105485Y-126772488D01*
X130105483Y-126772490D01*
X130045862Y-126854550D01*
X129966657Y-126963566D01*
X129919155Y-127056795D01*
X129871180Y-127107591D01*
X129808670Y-127124500D01*
X126191330Y-127124500D01*
X126124291Y-127104815D01*
X126080845Y-127056795D01*
X126033342Y-126963566D01*
X125894517Y-126772490D01*
X125727510Y-126605483D01*
X125536433Y-126466657D01*
X125325996Y-126359433D01*
X125101368Y-126286446D01*
X124868097Y-126249500D01*
X124868092Y-126249500D01*
X124631908Y-126249500D01*
X124631903Y-126249500D01*
X124398631Y-126286446D01*
X124174003Y-126359433D01*
X123963566Y-126466657D01*
X123854550Y-126545862D01*
X123772490Y-126605483D01*
X123772488Y-126605485D01*
X123772487Y-126605485D01*
X123605485Y-126772487D01*
X123605485Y-126772488D01*
X123605483Y-126772490D01*
X123545862Y-126854550D01*
X123466657Y-126963566D01*
X123359433Y-127174003D01*
X123286446Y-127398631D01*
X123249500Y-127631902D01*
X115000500Y-127631902D01*
X115000500Y-123131902D01*
X123249500Y-123131902D01*
X123249500Y-123368097D01*
X123286446Y-123601368D01*
X123359433Y-123825996D01*
X123419155Y-123943205D01*
X123466657Y-124036433D01*
X123605483Y-124227510D01*
X123772490Y-124394517D01*
X123963567Y-124533343D01*
X124062991Y-124584002D01*
X124174003Y-124640566D01*
X124174005Y-124640566D01*
X124174008Y-124640568D01*
X124294412Y-124679689D01*
X124398631Y-124713553D01*
X124631903Y-124750500D01*
X124631908Y-124750500D01*
X124868097Y-124750500D01*
X125101368Y-124713553D01*
X125325992Y-124640568D01*
X125536433Y-124533343D01*
X125727510Y-124394517D01*
X125894517Y-124227510D01*
X126033343Y-124036433D01*
X126080845Y-123943205D01*
X126128820Y-123892409D01*
X126191330Y-123875500D01*
X129808670Y-123875500D01*
X129875709Y-123895185D01*
X129919155Y-123943205D01*
X129966657Y-124036433D01*
X130105483Y-124227510D01*
X130272490Y-124394517D01*
X130463567Y-124533343D01*
X130562991Y-124584002D01*
X130674003Y-124640566D01*
X130674005Y-124640566D01*
X130674008Y-124640568D01*
X130794412Y-124679689D01*
X130898631Y-124713553D01*
X131131903Y-124750500D01*
X131131908Y-124750500D01*
X131368097Y-124750500D01*
X131601368Y-124713553D01*
X131825992Y-124640568D01*
X132036433Y-124533343D01*
X132227510Y-124394517D01*
X132394517Y-124227510D01*
X132533343Y-124036433D01*
X132640568Y-123825992D01*
X132713553Y-123601368D01*
X132750500Y-123368097D01*
X132750500Y-123131902D01*
X132713553Y-122898631D01*
X132681219Y-122799119D01*
X132679224Y-122729278D01*
X132711467Y-122673121D01*
X145680744Y-109703845D01*
X145742065Y-109670362D01*
X145806739Y-109673596D01*
X145898632Y-109703455D01*
X146015270Y-109721928D01*
X146131903Y-109740402D01*
X146131908Y-109740402D01*
X146368097Y-109740402D01*
X146601368Y-109703455D01*
X146644172Y-109689547D01*
X146825992Y-109630470D01*
X147036433Y-109523245D01*
X147227510Y-109384419D01*
X147394517Y-109217412D01*
X147533343Y-109026335D01*
X147640568Y-108815894D01*
X147713553Y-108591270D01*
X147717135Y-108568656D01*
X147750500Y-108357999D01*
X147750500Y-108121804D01*
X147713553Y-107888533D01*
X147679689Y-107784314D01*
X147640568Y-107663910D01*
X147640566Y-107663907D01*
X147640566Y-107663905D01*
X147584002Y-107552893D01*
X147533343Y-107453469D01*
X147394517Y-107262392D01*
X147227510Y-107095385D01*
X147036433Y-106956559D01*
X147036432Y-106956558D01*
X147036430Y-106956557D01*
X146943204Y-106909055D01*
X146892409Y-106861080D01*
X146875500Y-106798571D01*
X146875500Y-103181231D01*
X146895185Y-103114192D01*
X146943205Y-103070746D01*
X147036433Y-103023245D01*
X147227510Y-102884419D01*
X147394517Y-102717412D01*
X147533343Y-102526335D01*
X147640568Y-102315894D01*
X147713553Y-102091270D01*
X147732422Y-101972138D01*
X147750500Y-101857999D01*
X147750500Y-101621804D01*
X149249500Y-101621804D01*
X149249500Y-101857999D01*
X149286446Y-102091270D01*
X149359433Y-102315898D01*
X149412769Y-102420574D01*
X149466657Y-102526335D01*
X149605483Y-102717412D01*
X149772490Y-102884419D01*
X149897164Y-102975000D01*
X149963568Y-103023246D01*
X149988955Y-103036181D01*
X150056793Y-103070746D01*
X150058262Y-103071494D01*
X150109058Y-103119468D01*
X150125968Y-103181979D01*
X150125968Y-106797823D01*
X150106283Y-106864862D01*
X150058264Y-106908307D01*
X149963569Y-106956557D01*
X149868028Y-107025972D01*
X149772490Y-107095385D01*
X149772488Y-107095387D01*
X149772487Y-107095387D01*
X149605485Y-107262389D01*
X149605485Y-107262390D01*
X149605483Y-107262392D01*
X149557950Y-107327816D01*
X149466657Y-107453468D01*
X149359433Y-107663905D01*
X149286446Y-107888533D01*
X149249500Y-108121804D01*
X149249500Y-108357999D01*
X149286446Y-108591270D01*
X149359433Y-108815898D01*
X149407381Y-108910000D01*
X149466657Y-109026335D01*
X149605483Y-109217412D01*
X149772490Y-109384419D01*
X149963567Y-109523245D01*
X150035897Y-109560099D01*
X150174003Y-109630468D01*
X150174005Y-109630468D01*
X150174008Y-109630470D01*
X150264892Y-109660000D01*
X150398631Y-109703455D01*
X150631903Y-109740402D01*
X150631908Y-109740402D01*
X150868097Y-109740402D01*
X151101368Y-109703455D01*
X151144172Y-109689547D01*
X151325992Y-109630470D01*
X151536433Y-109523245D01*
X151727510Y-109384419D01*
X151894517Y-109217412D01*
X152033343Y-109026335D01*
X152140568Y-108815894D01*
X152213553Y-108591270D01*
X152217135Y-108568656D01*
X152250500Y-108357999D01*
X152250500Y-108121804D01*
X152213553Y-107888533D01*
X152179689Y-107784314D01*
X152140568Y-107663910D01*
X152140566Y-107663907D01*
X152140566Y-107663905D01*
X152084002Y-107552893D01*
X152033343Y-107453469D01*
X151894517Y-107262392D01*
X151727510Y-107095385D01*
X151536433Y-106956559D01*
X151536432Y-106956558D01*
X151536430Y-106956557D01*
X151444672Y-106909803D01*
X151393877Y-106861828D01*
X151376968Y-106799319D01*
X151376968Y-103180483D01*
X151396653Y-103113444D01*
X151444673Y-103069998D01*
X151536433Y-103023245D01*
X151727510Y-102884419D01*
X151894517Y-102717412D01*
X152033343Y-102526335D01*
X152140568Y-102315894D01*
X152213553Y-102091270D01*
X152232422Y-101972138D01*
X152250500Y-101857999D01*
X152250500Y-101621804D01*
X152213553Y-101388533D01*
X152168184Y-101248904D01*
X152140568Y-101163910D01*
X152140566Y-101163907D01*
X152140566Y-101163905D01*
X152033342Y-100953468D01*
X151894517Y-100762392D01*
X151727510Y-100595385D01*
X151536433Y-100456559D01*
X151325996Y-100349335D01*
X151101368Y-100276348D01*
X150868097Y-100239402D01*
X150868092Y-100239402D01*
X150631908Y-100239402D01*
X150631903Y-100239402D01*
X150398631Y-100276348D01*
X150174003Y-100349335D01*
X149963566Y-100456559D01*
X149890163Y-100509890D01*
X149772490Y-100595385D01*
X149772488Y-100595387D01*
X149772487Y-100595387D01*
X149605485Y-100762389D01*
X149605485Y-100762390D01*
X149605483Y-100762392D01*
X149597883Y-100772853D01*
X149466657Y-100953468D01*
X149359433Y-101163905D01*
X149286446Y-101388533D01*
X149249500Y-101621804D01*
X147750500Y-101621804D01*
X147725868Y-101466292D01*
X147713553Y-101388534D01*
X147683694Y-101296641D01*
X147681700Y-101226801D01*
X147713943Y-101170645D01*
X162202686Y-86681902D01*
X164199500Y-86681902D01*
X164199500Y-86918097D01*
X164236446Y-87151368D01*
X164309433Y-87375996D01*
X164369155Y-87493205D01*
X164416657Y-87586433D01*
X164555483Y-87777510D01*
X164722490Y-87944517D01*
X164913567Y-88083343D01*
X165012991Y-88134002D01*
X165124003Y-88190566D01*
X165124005Y-88190566D01*
X165124008Y-88190568D01*
X165244412Y-88229689D01*
X165348631Y-88263553D01*
X165581903Y-88300500D01*
X165581908Y-88300500D01*
X165818097Y-88300500D01*
X166051368Y-88263553D01*
X166275992Y-88190568D01*
X166486433Y-88083343D01*
X166677510Y-87944517D01*
X166844517Y-87777510D01*
X166983343Y-87586433D01*
X167030845Y-87493205D01*
X167078820Y-87442409D01*
X167141330Y-87425500D01*
X170758670Y-87425500D01*
X170825709Y-87445185D01*
X170869155Y-87493205D01*
X170916657Y-87586433D01*
X171055483Y-87777510D01*
X171222490Y-87944517D01*
X171413567Y-88083343D01*
X171512991Y-88134002D01*
X171624003Y-88190566D01*
X171624005Y-88190566D01*
X171624008Y-88190568D01*
X171744412Y-88229689D01*
X171848631Y-88263553D01*
X172081903Y-88300500D01*
X172081908Y-88300500D01*
X172318097Y-88300500D01*
X172551368Y-88263553D01*
X172775992Y-88190568D01*
X172986433Y-88083343D01*
X173177510Y-87944517D01*
X173344517Y-87777510D01*
X173483343Y-87586433D01*
X173590568Y-87375992D01*
X173663553Y-87151368D01*
X173700500Y-86918097D01*
X173700500Y-86681902D01*
X173663553Y-86448631D01*
X173590566Y-86224003D01*
X173483342Y-86013566D01*
X173344517Y-85822490D01*
X173177510Y-85655483D01*
X172986433Y-85516657D01*
X172775996Y-85409433D01*
X172551368Y-85336446D01*
X172318097Y-85299500D01*
X172318092Y-85299500D01*
X172081908Y-85299500D01*
X172081903Y-85299500D01*
X171848631Y-85336446D01*
X171624003Y-85409433D01*
X171413566Y-85516657D01*
X171304550Y-85595862D01*
X171222490Y-85655483D01*
X171222488Y-85655485D01*
X171222487Y-85655485D01*
X171055485Y-85822487D01*
X171055485Y-85822488D01*
X171055483Y-85822490D01*
X170995862Y-85904550D01*
X170916657Y-86013566D01*
X170869155Y-86106795D01*
X170821180Y-86157591D01*
X170758670Y-86174500D01*
X167141330Y-86174500D01*
X167074291Y-86154815D01*
X167030845Y-86106795D01*
X166983342Y-86013566D01*
X166844517Y-85822490D01*
X166677510Y-85655483D01*
X166486433Y-85516657D01*
X166275996Y-85409433D01*
X166051368Y-85336446D01*
X165818097Y-85299500D01*
X165818092Y-85299500D01*
X165581908Y-85299500D01*
X165581903Y-85299500D01*
X165348631Y-85336446D01*
X165124003Y-85409433D01*
X164913566Y-85516657D01*
X164804550Y-85595862D01*
X164722490Y-85655483D01*
X164722488Y-85655485D01*
X164722487Y-85655485D01*
X164555485Y-85822487D01*
X164555485Y-85822488D01*
X164555483Y-85822490D01*
X164495862Y-85904550D01*
X164416657Y-86013566D01*
X164309433Y-86224003D01*
X164236446Y-86448631D01*
X164199500Y-86681902D01*
X162202686Y-86681902D01*
X165123121Y-83761467D01*
X165184442Y-83727984D01*
X165249117Y-83731218D01*
X165295517Y-83746295D01*
X165348631Y-83763553D01*
X165581903Y-83800500D01*
X165581908Y-83800500D01*
X165818097Y-83800500D01*
X166051368Y-83763553D01*
X166150881Y-83731219D01*
X166275992Y-83690568D01*
X166486433Y-83583343D01*
X166677510Y-83444517D01*
X166844517Y-83277510D01*
X166983343Y-83086433D01*
X167030845Y-82993205D01*
X167078820Y-82942409D01*
X167141330Y-82925500D01*
X170758670Y-82925500D01*
X170825709Y-82945185D01*
X170869155Y-82993205D01*
X170916657Y-83086433D01*
X171055483Y-83277510D01*
X171222490Y-83444517D01*
X171413567Y-83583343D01*
X171512991Y-83634002D01*
X171624003Y-83690566D01*
X171624005Y-83690566D01*
X171624008Y-83690568D01*
X171676852Y-83707738D01*
X171848631Y-83763553D01*
X172081903Y-83800500D01*
X172081908Y-83800500D01*
X172318097Y-83800500D01*
X172551368Y-83763553D01*
X172557782Y-83761469D01*
X172650881Y-83731218D01*
X172720720Y-83729223D01*
X172776879Y-83761469D01*
X178338181Y-89322771D01*
X178371666Y-89384094D01*
X178374500Y-89410452D01*
X178374500Y-95187019D01*
X178354815Y-95254058D01*
X178306797Y-95297503D01*
X178292180Y-95304950D01*
X178120213Y-95429890D01*
X177969890Y-95580213D01*
X177844951Y-95752179D01*
X177748444Y-95941585D01*
X177682753Y-96143760D01*
X177649500Y-96353713D01*
X177649500Y-96566286D01*
X177682753Y-96776239D01*
X177748444Y-96978414D01*
X177844951Y-97167820D01*
X177969890Y-97339786D01*
X178120213Y-97490109D01*
X178292182Y-97615050D01*
X178300946Y-97619516D01*
X178351742Y-97667491D01*
X178368536Y-97735312D01*
X178345998Y-97801447D01*
X178300946Y-97840484D01*
X178292182Y-97844949D01*
X178120213Y-97969890D01*
X177969890Y-98120213D01*
X177844950Y-98292180D01*
X177837503Y-98306797D01*
X177789527Y-98357592D01*
X177727019Y-98374500D01*
X165567741Y-98374500D01*
X165567721Y-98374499D01*
X165561607Y-98374499D01*
X165438394Y-98374499D01*
X165337597Y-98394548D01*
X165337592Y-98394548D01*
X165317549Y-98398536D01*
X165317547Y-98398536D01*
X165270397Y-98418067D01*
X165203719Y-98445685D01*
X165203717Y-98445686D01*
X165101266Y-98514141D01*
X165101263Y-98514144D01*
X160937898Y-102677511D01*
X159601269Y-104014140D01*
X159601267Y-104014142D01*
X159557704Y-104057704D01*
X159514142Y-104101266D01*
X159490797Y-104136204D01*
X159490792Y-104136211D01*
X159487188Y-104141607D01*
X159445688Y-104203714D01*
X159412347Y-104284207D01*
X159410174Y-104289452D01*
X159410174Y-104289453D01*
X159398537Y-104317545D01*
X159398535Y-104317553D01*
X159374500Y-104438389D01*
X159374500Y-109689547D01*
X159354815Y-109756586D01*
X159338181Y-109777228D01*
X158652228Y-110463181D01*
X158590905Y-110496666D01*
X158564547Y-110499500D01*
X158411306Y-110499500D01*
X158237341Y-110534103D01*
X158237332Y-110534106D01*
X158073459Y-110601983D01*
X158073446Y-110601990D01*
X157925965Y-110700535D01*
X157925961Y-110700538D01*
X157800538Y-110825961D01*
X157800535Y-110825965D01*
X157701990Y-110973446D01*
X157701983Y-110973459D01*
X157634106Y-111137332D01*
X157634103Y-111137341D01*
X157599500Y-111311304D01*
X157599500Y-111488695D01*
X157634103Y-111662658D01*
X157634106Y-111662667D01*
X157701983Y-111826540D01*
X157701990Y-111826553D01*
X157800535Y-111974034D01*
X157800538Y-111974038D01*
X157888819Y-112062319D01*
X157922304Y-112123642D01*
X157917320Y-112193334D01*
X157888819Y-112237681D01*
X157800538Y-112325961D01*
X157800535Y-112325965D01*
X157701990Y-112473446D01*
X157701983Y-112473459D01*
X157634106Y-112637332D01*
X157634103Y-112637341D01*
X157599500Y-112811304D01*
X157599500Y-112988695D01*
X157634103Y-113162658D01*
X157634106Y-113162667D01*
X157701983Y-113326540D01*
X157701990Y-113326553D01*
X157800535Y-113474034D01*
X157800538Y-113474038D01*
X157925961Y-113599461D01*
X157925965Y-113599464D01*
X158073446Y-113698009D01*
X158073459Y-113698016D01*
X158177014Y-113740909D01*
X158237334Y-113765894D01*
X158237336Y-113765894D01*
X158237341Y-113765896D01*
X158411304Y-113800499D01*
X158411307Y-113800500D01*
X158411309Y-113800500D01*
X158588693Y-113800500D01*
X158588694Y-113800499D01*
X158646682Y-113788964D01*
X158762658Y-113765896D01*
X158762661Y-113765894D01*
X158762666Y-113765894D01*
X158926547Y-113698013D01*
X159074035Y-113599464D01*
X159199464Y-113474035D01*
X159298013Y-113326547D01*
X159365894Y-113162666D01*
X159394304Y-113019838D01*
X159426688Y-112957928D01*
X159428182Y-112956407D01*
X161162819Y-111221771D01*
X161224142Y-111188286D01*
X161293834Y-111193270D01*
X161349767Y-111235142D01*
X161374184Y-111300606D01*
X161374500Y-111309452D01*
X161374500Y-113689547D01*
X161354815Y-113756586D01*
X161338181Y-113777228D01*
X158552229Y-116563181D01*
X158490906Y-116596666D01*
X158464548Y-116599500D01*
X158411306Y-116599500D01*
X158237341Y-116634103D01*
X158237332Y-116634106D01*
X158073459Y-116701983D01*
X158073446Y-116701990D01*
X157925965Y-116800535D01*
X157925961Y-116800538D01*
X157800538Y-116925961D01*
X157800535Y-116925965D01*
X157701990Y-117073446D01*
X157701983Y-117073459D01*
X157634106Y-117237332D01*
X157634103Y-117237341D01*
X157599500Y-117411304D01*
X157599500Y-117588695D01*
X157634103Y-117762658D01*
X157634106Y-117762667D01*
X157701983Y-117926540D01*
X157701990Y-117926553D01*
X157800535Y-118074034D01*
X157800538Y-118074038D01*
X157925961Y-118199461D01*
X157925965Y-118199464D01*
X158073446Y-118298009D01*
X158073459Y-118298016D01*
X158196363Y-118348923D01*
X158237334Y-118365894D01*
X158237336Y-118365894D01*
X158237341Y-118365896D01*
X158411304Y-118400499D01*
X158411307Y-118400500D01*
X158411309Y-118400500D01*
X158588693Y-118400500D01*
X158588694Y-118400499D01*
X158646682Y-118388964D01*
X158762658Y-118365896D01*
X158762661Y-118365894D01*
X158762666Y-118365894D01*
X158926547Y-118298013D01*
X159074035Y-118199464D01*
X159199464Y-118074035D01*
X159298013Y-117926547D01*
X159365894Y-117762666D01*
X159400500Y-117588691D01*
X159400500Y-117535452D01*
X159420185Y-117468413D01*
X159436819Y-117447771D01*
X162485854Y-114398737D01*
X162485857Y-114398734D01*
X162554311Y-114296286D01*
X162601463Y-114182452D01*
X162625500Y-114061607D01*
X162625500Y-113938394D01*
X162625500Y-105810452D01*
X162645185Y-105743413D01*
X162661819Y-105722771D01*
X163642771Y-104741819D01*
X163704094Y-104708334D01*
X163730452Y-104705500D01*
X177727019Y-104705500D01*
X177794058Y-104725185D01*
X177837503Y-104773203D01*
X177844950Y-104787819D01*
X177969890Y-104959786D01*
X178120213Y-105110109D01*
X178292182Y-105235050D01*
X178300946Y-105239516D01*
X178351742Y-105287491D01*
X178368536Y-105355312D01*
X178345998Y-105421447D01*
X178300946Y-105460484D01*
X178292182Y-105464949D01*
X178120213Y-105589890D01*
X177969890Y-105740213D01*
X177844951Y-105912179D01*
X177748444Y-106101585D01*
X177682753Y-106303760D01*
X177649500Y-106513713D01*
X177649500Y-106726286D01*
X177673102Y-106875307D01*
X177682754Y-106936243D01*
X177738298Y-107107190D01*
X177748444Y-107138414D01*
X177844951Y-107327820D01*
X177969890Y-107499786D01*
X178083818Y-107613714D01*
X178117303Y-107675037D01*
X178112319Y-107744729D01*
X178070447Y-107800662D01*
X178039471Y-107817577D01*
X177907912Y-107866646D01*
X177907906Y-107866649D01*
X177792812Y-107952809D01*
X177792809Y-107952812D01*
X177706649Y-108067906D01*
X177706645Y-108067913D01*
X177656403Y-108202620D01*
X177656401Y-108202627D01*
X177650000Y-108262155D01*
X177650000Y-108910000D01*
X178566988Y-108910000D01*
X178534075Y-108967007D01*
X178500000Y-109094174D01*
X178500000Y-109225826D01*
X178534075Y-109352993D01*
X178566988Y-109410000D01*
X177650000Y-109410000D01*
X177650000Y-110057844D01*
X177656401Y-110117372D01*
X177656403Y-110117379D01*
X177706645Y-110252086D01*
X177706649Y-110252093D01*
X177792809Y-110367187D01*
X177792812Y-110367190D01*
X177907906Y-110453350D01*
X177907913Y-110453354D01*
X178042620Y-110503596D01*
X178042627Y-110503598D01*
X178102155Y-110509999D01*
X178102172Y-110510000D01*
X178750000Y-110510000D01*
X178750000Y-109593012D01*
X178807007Y-109625925D01*
X178934174Y-109660000D01*
X179065826Y-109660000D01*
X179192993Y-109625925D01*
X179250000Y-109593012D01*
X179250000Y-110510000D01*
X179897828Y-110510000D01*
X179897844Y-110509999D01*
X179957372Y-110503598D01*
X179957379Y-110503596D01*
X180092086Y-110453354D01*
X180092093Y-110453350D01*
X180207187Y-110367190D01*
X180207190Y-110367187D01*
X180293350Y-110252093D01*
X180293354Y-110252086D01*
X180343596Y-110117379D01*
X180343598Y-110117372D01*
X180349999Y-110057844D01*
X180350000Y-110057827D01*
X180350000Y-109410000D01*
X179433012Y-109410000D01*
X179465925Y-109352993D01*
X179500000Y-109225826D01*
X179500000Y-109094174D01*
X179465925Y-108967007D01*
X179433012Y-108910000D01*
X180350000Y-108910000D01*
X180350000Y-108262172D01*
X180349999Y-108262155D01*
X180343598Y-108202627D01*
X180343596Y-108202620D01*
X180293354Y-108067913D01*
X180293350Y-108067906D01*
X180207190Y-107952812D01*
X180207187Y-107952809D01*
X180092093Y-107866649D01*
X180092088Y-107866646D01*
X179960528Y-107817577D01*
X179904595Y-107775705D01*
X179880178Y-107710241D01*
X179895030Y-107641968D01*
X179916175Y-107613720D01*
X180030104Y-107499792D01*
X180063760Y-107453469D01*
X180155048Y-107327820D01*
X180155047Y-107327820D01*
X180155051Y-107327816D01*
X180251557Y-107138412D01*
X180317246Y-106936243D01*
X180350500Y-106726287D01*
X180350500Y-106513713D01*
X180317246Y-106303757D01*
X180251557Y-106101588D01*
X180155051Y-105912184D01*
X180155049Y-105912181D01*
X180155048Y-105912179D01*
X180030109Y-105740213D01*
X179879786Y-105589890D01*
X179707820Y-105464951D01*
X179707115Y-105464591D01*
X179699054Y-105460485D01*
X179648259Y-105412512D01*
X179631463Y-105344692D01*
X179653999Y-105278556D01*
X179699054Y-105239515D01*
X179707816Y-105235051D01*
X179729789Y-105219086D01*
X179879786Y-105110109D01*
X179879788Y-105110106D01*
X179879792Y-105110104D01*
X180030104Y-104959792D01*
X180030106Y-104959788D01*
X180030109Y-104959786D01*
X180155048Y-104787820D01*
X180155049Y-104787819D01*
X180155051Y-104787816D01*
X180251557Y-104598412D01*
X180317246Y-104396243D01*
X180350500Y-104186287D01*
X180350500Y-103973713D01*
X180317246Y-103763757D01*
X180251557Y-103561588D01*
X180155051Y-103372184D01*
X180155049Y-103372181D01*
X180155048Y-103372179D01*
X180030109Y-103200213D01*
X179879786Y-103049890D01*
X179707820Y-102924951D01*
X179707115Y-102924591D01*
X179699054Y-102920485D01*
X179648259Y-102872512D01*
X179631463Y-102804692D01*
X179653999Y-102738556D01*
X179699054Y-102699515D01*
X179707816Y-102695051D01*
X179731958Y-102677511D01*
X179879786Y-102570109D01*
X179879788Y-102570106D01*
X179879792Y-102570104D01*
X180030104Y-102419792D01*
X180030106Y-102419788D01*
X180030109Y-102419786D01*
X180155048Y-102247820D01*
X180155049Y-102247819D01*
X180155051Y-102247816D01*
X180251557Y-102058412D01*
X180317246Y-101856243D01*
X180350500Y-101646287D01*
X180350500Y-101433713D01*
X180317246Y-101223757D01*
X180251557Y-101021588D01*
X180155051Y-100832184D01*
X180155049Y-100832181D01*
X180155048Y-100832179D01*
X180030109Y-100660213D01*
X179879786Y-100509890D01*
X179707820Y-100384951D01*
X179707115Y-100384591D01*
X179699054Y-100380485D01*
X179648259Y-100332512D01*
X179631463Y-100264692D01*
X179653999Y-100198556D01*
X179699054Y-100159515D01*
X179707816Y-100155051D01*
X179729789Y-100139086D01*
X179879786Y-100030109D01*
X179879788Y-100030106D01*
X179879792Y-100030104D01*
X180030104Y-99879792D01*
X180030106Y-99879788D01*
X180030109Y-99879786D01*
X180155048Y-99707820D01*
X180155049Y-99707819D01*
X180155051Y-99707816D01*
X180251557Y-99518412D01*
X180317246Y-99316243D01*
X180350500Y-99106287D01*
X180350500Y-98893713D01*
X180317246Y-98683757D01*
X180251557Y-98481588D01*
X180155051Y-98292184D01*
X180155049Y-98292181D01*
X180155048Y-98292179D01*
X180030109Y-98120213D01*
X179879786Y-97969890D01*
X179707820Y-97844951D01*
X179707115Y-97844591D01*
X179699054Y-97840485D01*
X179648259Y-97792512D01*
X179631463Y-97724692D01*
X179653999Y-97658556D01*
X179699054Y-97619515D01*
X179707816Y-97615051D01*
X179729789Y-97599086D01*
X179879786Y-97490109D01*
X179879788Y-97490106D01*
X179879792Y-97490104D01*
X180030104Y-97339792D01*
X180030106Y-97339788D01*
X180030109Y-97339786D01*
X180155048Y-97167820D01*
X180155047Y-97167820D01*
X180155051Y-97167816D01*
X180251557Y-96978412D01*
X180317246Y-96776243D01*
X180350500Y-96566287D01*
X180350500Y-96353713D01*
X180317246Y-96143757D01*
X180251557Y-95941588D01*
X180155051Y-95752184D01*
X180155049Y-95752181D01*
X180155048Y-95752179D01*
X180030109Y-95580213D01*
X179879786Y-95429890D01*
X179707819Y-95304950D01*
X179693203Y-95297503D01*
X179642408Y-95249527D01*
X179625500Y-95187019D01*
X179625500Y-89038393D01*
X179625499Y-89038389D01*
X179601464Y-88917555D01*
X179601463Y-88917548D01*
X179554311Y-88803714D01*
X179554310Y-88803713D01*
X179554307Y-88803707D01*
X179485858Y-88701267D01*
X179485855Y-88701263D01*
X179395637Y-88611045D01*
X179395606Y-88611016D01*
X173661469Y-82876879D01*
X173627984Y-82815556D01*
X173631218Y-82750881D01*
X173663553Y-82651368D01*
X173700500Y-82418097D01*
X173700500Y-82181902D01*
X173663553Y-81948631D01*
X173590566Y-81724003D01*
X173483342Y-81513566D01*
X173344517Y-81322490D01*
X173177510Y-81155483D01*
X172986433Y-81016657D01*
X172954721Y-81000499D01*
X172775996Y-80909433D01*
X172551368Y-80836446D01*
X172318097Y-80799500D01*
X172318092Y-80799500D01*
X172081908Y-80799500D01*
X172081903Y-80799500D01*
X171848631Y-80836446D01*
X171624003Y-80909433D01*
X171413566Y-81016657D01*
X171304550Y-81095862D01*
X171222490Y-81155483D01*
X171222488Y-81155485D01*
X171222487Y-81155485D01*
X171055485Y-81322487D01*
X171055485Y-81322488D01*
X171055483Y-81322490D01*
X170995862Y-81404550D01*
X170916657Y-81513566D01*
X170869155Y-81606795D01*
X170821180Y-81657591D01*
X170758670Y-81674500D01*
X167141330Y-81674500D01*
X167074291Y-81654815D01*
X167030845Y-81606795D01*
X166983342Y-81513566D01*
X166844517Y-81322490D01*
X166677510Y-81155483D01*
X166486433Y-81016657D01*
X166454721Y-81000499D01*
X166275996Y-80909433D01*
X166051368Y-80836446D01*
X165818097Y-80799500D01*
X165818092Y-80799500D01*
X165581908Y-80799500D01*
X165581903Y-80799500D01*
X165348631Y-80836446D01*
X165124003Y-80909433D01*
X164913566Y-81016657D01*
X164804550Y-81095862D01*
X164722490Y-81155483D01*
X164722488Y-81155485D01*
X164722487Y-81155485D01*
X164555485Y-81322487D01*
X164555485Y-81322488D01*
X164555483Y-81322490D01*
X164495862Y-81404550D01*
X164416657Y-81513566D01*
X164309433Y-81724003D01*
X164236446Y-81948631D01*
X164199500Y-82181902D01*
X164199500Y-82418097D01*
X164236447Y-82651371D01*
X164268779Y-82750881D01*
X164270774Y-82820722D01*
X164238529Y-82876879D01*
X146834500Y-100280908D01*
X146773177Y-100314393D01*
X146708501Y-100311158D01*
X146601370Y-100276349D01*
X146368097Y-100239402D01*
X146368092Y-100239402D01*
X146131908Y-100239402D01*
X146131903Y-100239402D01*
X145898631Y-100276348D01*
X145674003Y-100349335D01*
X145463566Y-100456559D01*
X145390163Y-100509890D01*
X145272490Y-100595385D01*
X145272488Y-100595387D01*
X145272487Y-100595387D01*
X145105485Y-100762389D01*
X145105485Y-100762390D01*
X145105483Y-100762392D01*
X145097883Y-100772853D01*
X144966657Y-100953468D01*
X144859433Y-101163905D01*
X144786446Y-101388533D01*
X144749500Y-101621804D01*
X144749500Y-101857999D01*
X144786446Y-102091270D01*
X144859433Y-102315898D01*
X144912769Y-102420574D01*
X144966657Y-102526335D01*
X145105483Y-102717412D01*
X145272490Y-102884419D01*
X145397164Y-102975000D01*
X145463568Y-103023246D01*
X145488955Y-103036181D01*
X145556794Y-103070746D01*
X145607590Y-103118720D01*
X145624500Y-103181231D01*
X145624500Y-106798571D01*
X145604815Y-106865610D01*
X145556796Y-106909055D01*
X145463569Y-106956557D01*
X145368028Y-107025972D01*
X145272490Y-107095385D01*
X145272488Y-107095387D01*
X145272487Y-107095387D01*
X145105485Y-107262389D01*
X145105485Y-107262390D01*
X145105483Y-107262392D01*
X145057950Y-107327816D01*
X144966657Y-107453468D01*
X144859433Y-107663905D01*
X144786446Y-107888533D01*
X144749500Y-108121804D01*
X144749500Y-108357999D01*
X144786446Y-108591266D01*
X144786447Y-108591271D01*
X144821256Y-108698403D01*
X144823251Y-108768244D01*
X144791006Y-108824401D01*
X131826879Y-121788529D01*
X131765556Y-121822014D01*
X131700881Y-121818779D01*
X131601371Y-121786447D01*
X131368097Y-121749500D01*
X131368092Y-121749500D01*
X131131908Y-121749500D01*
X131131903Y-121749500D01*
X130898631Y-121786446D01*
X130674003Y-121859433D01*
X130463566Y-121966657D01*
X130354550Y-122045862D01*
X130272490Y-122105483D01*
X130272488Y-122105485D01*
X130272487Y-122105485D01*
X130105485Y-122272487D01*
X130105485Y-122272488D01*
X130105483Y-122272490D01*
X130045862Y-122354550D01*
X129966657Y-122463566D01*
X129919155Y-122556795D01*
X129871180Y-122607591D01*
X129808670Y-122624500D01*
X126191330Y-122624500D01*
X126124291Y-122604815D01*
X126080845Y-122556795D01*
X126033342Y-122463566D01*
X125894517Y-122272490D01*
X125727510Y-122105483D01*
X125536433Y-121966657D01*
X125325996Y-121859433D01*
X125101368Y-121786446D01*
X124868097Y-121749500D01*
X124868092Y-121749500D01*
X124631908Y-121749500D01*
X124631903Y-121749500D01*
X124398631Y-121786446D01*
X124174003Y-121859433D01*
X123963566Y-121966657D01*
X123854550Y-122045862D01*
X123772490Y-122105483D01*
X123772488Y-122105485D01*
X123772487Y-122105485D01*
X123605485Y-122272487D01*
X123605485Y-122272488D01*
X123605483Y-122272490D01*
X123545862Y-122354550D01*
X123466657Y-122463566D01*
X123359433Y-122674003D01*
X123286446Y-122898631D01*
X123249500Y-123131902D01*
X115000500Y-123131902D01*
X115000500Y-103935777D01*
X119599500Y-103935777D01*
X119599500Y-106064208D01*
X119599501Y-106064223D01*
X119609904Y-106196413D01*
X119609905Y-106196420D01*
X119664902Y-106414678D01*
X119664903Y-106414681D01*
X119757991Y-106619622D01*
X119757997Y-106619632D01*
X119886174Y-106804645D01*
X119886178Y-106804650D01*
X119886181Y-106804654D01*
X120045346Y-106963819D01*
X120045350Y-106963822D01*
X120045354Y-106963825D01*
X120086157Y-106992093D01*
X120230374Y-107092007D01*
X120435317Y-107185096D01*
X120435321Y-107185097D01*
X120653579Y-107240094D01*
X120653581Y-107240094D01*
X120653588Y-107240096D01*
X120785783Y-107250500D01*
X122414216Y-107250499D01*
X122546412Y-107240096D01*
X122764683Y-107185096D01*
X122969626Y-107092007D01*
X123154654Y-106963819D01*
X123313819Y-106804654D01*
X123442007Y-106619626D01*
X123535096Y-106414683D01*
X123590096Y-106196412D01*
X123600500Y-106064217D01*
X123600500Y-105106286D01*
X123600500Y-104888841D01*
X123600499Y-103935791D01*
X123600498Y-103935783D01*
X123590096Y-103803588D01*
X123580059Y-103763757D01*
X123535097Y-103585321D01*
X123535096Y-103585318D01*
X123524317Y-103561588D01*
X123442007Y-103380374D01*
X123395228Y-103312853D01*
X123313825Y-103195354D01*
X123313822Y-103195350D01*
X123313819Y-103195346D01*
X123154654Y-103036181D01*
X123154650Y-103036178D01*
X123154645Y-103036174D01*
X122969632Y-102907997D01*
X122969630Y-102907995D01*
X122969626Y-102907993D01*
X122936197Y-102892809D01*
X122764681Y-102814903D01*
X122764678Y-102814902D01*
X122546420Y-102759905D01*
X122546413Y-102759904D01*
X122501902Y-102756401D01*
X122414217Y-102749500D01*
X122414215Y-102749500D01*
X120785791Y-102749500D01*
X120785776Y-102749501D01*
X120653586Y-102759904D01*
X120653579Y-102759905D01*
X120435321Y-102814902D01*
X120435318Y-102814903D01*
X120230377Y-102907991D01*
X120230367Y-102907997D01*
X120045354Y-103036174D01*
X120045342Y-103036184D01*
X119886184Y-103195342D01*
X119886174Y-103195354D01*
X119757997Y-103380367D01*
X119757991Y-103380377D01*
X119664903Y-103585318D01*
X119664902Y-103585321D01*
X119609905Y-103803579D01*
X119609904Y-103803586D01*
X119599500Y-103935777D01*
X115000500Y-103935777D01*
X115000500Y-99331386D01*
X122349500Y-99331386D01*
X122349500Y-101268613D01*
X122349501Y-101268652D01*
X122352295Y-101321243D01*
X122352295Y-101321244D01*
X122396754Y-101551121D01*
X122396755Y-101551126D01*
X122422949Y-101620535D01*
X122479425Y-101770189D01*
X122597929Y-101972131D01*
X122597934Y-101972138D01*
X122748856Y-102151141D01*
X122748858Y-102151143D01*
X122927861Y-102302065D01*
X122927868Y-102302070D01*
X123129810Y-102420574D01*
X123348874Y-102503245D01*
X123578759Y-102547705D01*
X123631378Y-102550500D01*
X123631386Y-102550500D01*
X125568614Y-102550500D01*
X125568622Y-102550500D01*
X125568634Y-102550499D01*
X125568645Y-102550499D01*
X125575730Y-102550122D01*
X125606692Y-102548477D01*
X125674679Y-102564575D01*
X125723172Y-102614876D01*
X125736773Y-102683409D01*
X125711162Y-102748416D01*
X125656606Y-102788483D01*
X125607916Y-102806644D01*
X125607906Y-102806649D01*
X125492812Y-102892809D01*
X125492809Y-102892812D01*
X125406649Y-103007906D01*
X125406645Y-103007913D01*
X125356403Y-103142620D01*
X125356401Y-103142627D01*
X125350000Y-103202155D01*
X125350000Y-104750000D01*
X127100000Y-104750000D01*
X127100000Y-105250000D01*
X125350000Y-105250000D01*
X125350000Y-106797844D01*
X125356401Y-106857372D01*
X125356403Y-106857379D01*
X125406645Y-106992086D01*
X125406649Y-106992093D01*
X125492809Y-107107187D01*
X125492812Y-107107190D01*
X125607906Y-107193350D01*
X125607913Y-107193354D01*
X125742620Y-107243596D01*
X125742627Y-107243598D01*
X125802155Y-107249999D01*
X125802172Y-107250000D01*
X127350000Y-107250000D01*
X127350000Y-106433012D01*
X127407007Y-106465925D01*
X127534174Y-106500000D01*
X127665826Y-106500000D01*
X127792993Y-106465925D01*
X127850000Y-106433012D01*
X127850000Y-107250000D01*
X129397828Y-107250000D01*
X129397844Y-107249999D01*
X129457372Y-107243598D01*
X129457379Y-107243596D01*
X129592086Y-107193354D01*
X129592093Y-107193350D01*
X129707187Y-107107190D01*
X129707190Y-107107187D01*
X129793350Y-106992093D01*
X129793354Y-106992086D01*
X129843596Y-106857379D01*
X129843598Y-106857372D01*
X129849999Y-106797844D01*
X129850000Y-106797823D01*
X129850000Y-105250000D01*
X128100000Y-105250000D01*
X128100000Y-104893713D01*
X133992000Y-104893713D01*
X133992000Y-105106286D01*
X134013101Y-105239516D01*
X134025254Y-105316243D01*
X134073572Y-105464951D01*
X134090944Y-105518414D01*
X134187451Y-105707820D01*
X134312390Y-105879786D01*
X134451205Y-106018601D01*
X134484690Y-106079924D01*
X134479706Y-106149616D01*
X134437834Y-106205549D01*
X134428621Y-106211821D01*
X134273842Y-106307289D01*
X134149789Y-106431342D01*
X134057687Y-106580663D01*
X134057686Y-106580666D01*
X134002501Y-106747203D01*
X134002501Y-106747204D01*
X134002500Y-106747204D01*
X133992000Y-106849983D01*
X133992000Y-108150001D01*
X133992001Y-108150018D01*
X134002500Y-108252796D01*
X134002501Y-108252799D01*
X134057685Y-108419331D01*
X134057686Y-108419334D01*
X134149788Y-108568656D01*
X134273844Y-108692712D01*
X134423166Y-108784814D01*
X134589703Y-108839999D01*
X134692491Y-108850500D01*
X136242508Y-108850499D01*
X136345297Y-108839999D01*
X136511834Y-108784814D01*
X136661156Y-108692712D01*
X136785212Y-108568656D01*
X136877314Y-108419334D01*
X136932499Y-108252797D01*
X136943000Y-108150009D01*
X136942999Y-106849992D01*
X136932499Y-106747203D01*
X136877314Y-106580666D01*
X136785212Y-106431344D01*
X136661156Y-106307288D01*
X136511834Y-106215186D01*
X136511833Y-106215185D01*
X136506378Y-106211821D01*
X136459654Y-106159873D01*
X136448431Y-106090910D01*
X136476275Y-106026828D01*
X136483772Y-106018623D01*
X136622604Y-105879792D01*
X136747551Y-105707816D01*
X136844057Y-105518412D01*
X136909746Y-105316243D01*
X136943000Y-105106287D01*
X136943000Y-104893713D01*
X136909746Y-104683757D01*
X136844057Y-104481588D01*
X136747551Y-104292184D01*
X136747549Y-104292181D01*
X136747548Y-104292179D01*
X136622609Y-104120213D01*
X136472290Y-103969894D01*
X136472285Y-103969890D01*
X136307281Y-103850008D01*
X136264615Y-103794678D01*
X136258636Y-103725065D01*
X136291241Y-103663270D01*
X136307281Y-103649371D01*
X136471966Y-103529721D01*
X136622223Y-103379464D01*
X136622227Y-103379459D01*
X136747120Y-103207557D01*
X136843595Y-103018217D01*
X136909257Y-102816129D01*
X136909257Y-102816126D01*
X136919731Y-102750000D01*
X135871646Y-102750000D01*
X135910130Y-102683343D01*
X135942500Y-102562535D01*
X135942500Y-102437465D01*
X135910130Y-102316657D01*
X135871646Y-102250000D01*
X136919731Y-102250000D01*
X136909257Y-102183873D01*
X136909257Y-102183870D01*
X136843595Y-101981782D01*
X136747120Y-101792442D01*
X136622227Y-101620540D01*
X136622223Y-101620535D01*
X136471964Y-101470276D01*
X136471959Y-101470272D01*
X136300057Y-101345379D01*
X136110717Y-101248904D01*
X135908628Y-101183242D01*
X135717500Y-101152969D01*
X135717500Y-102095854D01*
X135650843Y-102057370D01*
X135530035Y-102025000D01*
X135404965Y-102025000D01*
X135284157Y-102057370D01*
X135217500Y-102095854D01*
X135217500Y-101152969D01*
X135026372Y-101183242D01*
X135026369Y-101183242D01*
X134824282Y-101248904D01*
X134634942Y-101345379D01*
X134463040Y-101470272D01*
X134463035Y-101470276D01*
X134312776Y-101620535D01*
X134312772Y-101620540D01*
X134187879Y-101792442D01*
X134091404Y-101981782D01*
X134025742Y-102183870D01*
X134025742Y-102183873D01*
X134015269Y-102250000D01*
X135063354Y-102250000D01*
X135024870Y-102316657D01*
X134992500Y-102437465D01*
X134992500Y-102562535D01*
X135024870Y-102683343D01*
X135063354Y-102750000D01*
X134015269Y-102750000D01*
X134025742Y-102816126D01*
X134025742Y-102816129D01*
X134091404Y-103018217D01*
X134187879Y-103207557D01*
X134312772Y-103379459D01*
X134312776Y-103379464D01*
X134463035Y-103529723D01*
X134463040Y-103529727D01*
X134627718Y-103649372D01*
X134670384Y-103704701D01*
X134676363Y-103774315D01*
X134643758Y-103836110D01*
X134627718Y-103850008D01*
X134462714Y-103969890D01*
X134462709Y-103969894D01*
X134312390Y-104120213D01*
X134187451Y-104292179D01*
X134090944Y-104481585D01*
X134025253Y-104683760D01*
X133992000Y-104893713D01*
X128100000Y-104893713D01*
X128100000Y-104750000D01*
X129850000Y-104750000D01*
X129850000Y-103202172D01*
X129849999Y-103202155D01*
X129843598Y-103142627D01*
X129843596Y-103142620D01*
X129793354Y-103007913D01*
X129793350Y-103007906D01*
X129707190Y-102892812D01*
X129707187Y-102892809D01*
X129592093Y-102806649D01*
X129592086Y-102806645D01*
X129457379Y-102756403D01*
X129457372Y-102756401D01*
X129397844Y-102750000D01*
X127850000Y-102750000D01*
X127850000Y-103566988D01*
X127792993Y-103534075D01*
X127665826Y-103500000D01*
X127534174Y-103500000D01*
X127407007Y-103534075D01*
X127350000Y-103566988D01*
X127350000Y-102750000D01*
X125869445Y-102750000D01*
X125802406Y-102730315D01*
X125756651Y-102677511D01*
X125746707Y-102608353D01*
X125775732Y-102544797D01*
X125834510Y-102507023D01*
X125845899Y-102504256D01*
X125846355Y-102504167D01*
X125851126Y-102503245D01*
X126070190Y-102420574D01*
X126272132Y-102302070D01*
X126272138Y-102302065D01*
X126402371Y-102192263D01*
X126451141Y-102151143D01*
X126451143Y-102151141D01*
X126602065Y-101972138D01*
X126602065Y-101972137D01*
X126602070Y-101972132D01*
X126720574Y-101770190D01*
X126803245Y-101551126D01*
X126847705Y-101321241D01*
X126850500Y-101268622D01*
X126850500Y-99331378D01*
X126847705Y-99278759D01*
X126803245Y-99048874D01*
X126720574Y-98829810D01*
X126602070Y-98627868D01*
X126602065Y-98627861D01*
X126451143Y-98448858D01*
X126451141Y-98448856D01*
X126272138Y-98297934D01*
X126272131Y-98297929D01*
X126070189Y-98179425D01*
X125979832Y-98145326D01*
X125851126Y-98096755D01*
X125851121Y-98096754D01*
X125621243Y-98052295D01*
X125568652Y-98049501D01*
X125568629Y-98049500D01*
X125568622Y-98049500D01*
X123631378Y-98049500D01*
X123631370Y-98049500D01*
X123631347Y-98049501D01*
X123578756Y-98052295D01*
X123578755Y-98052295D01*
X123348878Y-98096754D01*
X123348876Y-98096754D01*
X123348874Y-98096755D01*
X123274933Y-98124659D01*
X123129810Y-98179425D01*
X122927868Y-98297929D01*
X122927861Y-98297934D01*
X122748858Y-98448856D01*
X122748856Y-98448858D01*
X122597934Y-98627861D01*
X122597929Y-98627868D01*
X122479425Y-98829810D01*
X122455310Y-98893713D01*
X122396755Y-99048874D01*
X122396754Y-99048876D01*
X122396754Y-99048878D01*
X122352295Y-99278755D01*
X122352295Y-99278756D01*
X122349501Y-99331347D01*
X122349500Y-99331386D01*
X115000500Y-99331386D01*
X115000500Y-77831491D01*
X118499500Y-77831491D01*
X118499500Y-78168508D01*
X118537231Y-78503381D01*
X118537233Y-78503397D01*
X118612223Y-78831953D01*
X118612227Y-78831965D01*
X118723532Y-79150054D01*
X118869752Y-79453683D01*
X118869754Y-79453686D01*
X119049054Y-79739039D01*
X119259175Y-80002523D01*
X119497477Y-80240825D01*
X119760961Y-80450946D01*
X120046314Y-80630246D01*
X120349949Y-80776469D01*
X120588848Y-80860063D01*
X120668034Y-80887772D01*
X120668046Y-80887776D01*
X120996606Y-80962767D01*
X121331492Y-81000499D01*
X121331493Y-81000500D01*
X121331496Y-81000500D01*
X121668507Y-81000500D01*
X121668507Y-81000499D01*
X122003394Y-80962767D01*
X122331954Y-80887776D01*
X122650051Y-80776469D01*
X122953686Y-80630246D01*
X123239039Y-80450946D01*
X123502523Y-80240825D01*
X123740825Y-80002523D01*
X123950946Y-79739039D01*
X124130246Y-79453686D01*
X124276469Y-79150051D01*
X124387776Y-78831954D01*
X124462767Y-78503394D01*
X124500500Y-78168504D01*
X124500500Y-77831496D01*
X124500499Y-77831491D01*
X172499500Y-77831491D01*
X172499500Y-78168508D01*
X172537231Y-78503381D01*
X172537233Y-78503397D01*
X172612223Y-78831953D01*
X172612227Y-78831965D01*
X172723532Y-79150054D01*
X172869752Y-79453683D01*
X172869754Y-79453686D01*
X173049054Y-79739039D01*
X173259175Y-80002523D01*
X173497477Y-80240825D01*
X173760961Y-80450946D01*
X174046314Y-80630246D01*
X174349949Y-80776469D01*
X174588848Y-80860063D01*
X174668034Y-80887772D01*
X174668046Y-80887776D01*
X174996606Y-80962767D01*
X175331492Y-81000499D01*
X175331493Y-81000500D01*
X175331496Y-81000500D01*
X175668507Y-81000500D01*
X175668507Y-81000499D01*
X176003394Y-80962767D01*
X176331954Y-80887776D01*
X176650051Y-80776469D01*
X176953686Y-80630246D01*
X177239039Y-80450946D01*
X177502523Y-80240825D01*
X177740825Y-80002523D01*
X177950946Y-79739039D01*
X178130246Y-79453686D01*
X178276469Y-79150051D01*
X178387776Y-78831954D01*
X178462767Y-78503394D01*
X178500500Y-78168504D01*
X178500500Y-77831496D01*
X178462767Y-77496606D01*
X178387776Y-77168046D01*
X178276469Y-76849949D01*
X178130246Y-76546314D01*
X177950946Y-76260961D01*
X177740825Y-75997477D01*
X177502523Y-75759175D01*
X177239039Y-75549054D01*
X176953686Y-75369754D01*
X176953683Y-75369752D01*
X176650054Y-75223532D01*
X176331965Y-75112227D01*
X176331953Y-75112223D01*
X176003397Y-75037233D01*
X176003381Y-75037231D01*
X175668508Y-74999500D01*
X175668504Y-74999500D01*
X175331496Y-74999500D01*
X175331491Y-74999500D01*
X174996618Y-75037231D01*
X174996602Y-75037233D01*
X174668046Y-75112223D01*
X174668034Y-75112227D01*
X174349945Y-75223532D01*
X174046316Y-75369752D01*
X173760962Y-75549053D01*
X173497477Y-75759174D01*
X173259174Y-75997477D01*
X173049053Y-76260962D01*
X172869752Y-76546316D01*
X172723532Y-76849945D01*
X172612227Y-77168034D01*
X172612223Y-77168046D01*
X172537233Y-77496602D01*
X172537231Y-77496618D01*
X172499500Y-77831491D01*
X124500499Y-77831491D01*
X124462767Y-77496606D01*
X124387776Y-77168046D01*
X124276469Y-76849949D01*
X124130246Y-76546314D01*
X123950946Y-76260961D01*
X123740825Y-75997477D01*
X123502523Y-75759175D01*
X123239039Y-75549054D01*
X122953686Y-75369754D01*
X122953683Y-75369752D01*
X122650054Y-75223532D01*
X122331965Y-75112227D01*
X122331953Y-75112223D01*
X122003397Y-75037233D01*
X122003381Y-75037231D01*
X121668508Y-74999500D01*
X121668504Y-74999500D01*
X121331496Y-74999500D01*
X121331491Y-74999500D01*
X120996618Y-75037231D01*
X120996602Y-75037233D01*
X120668046Y-75112223D01*
X120668034Y-75112227D01*
X120349945Y-75223532D01*
X120046316Y-75369752D01*
X119760962Y-75549053D01*
X119497477Y-75759174D01*
X119259174Y-75997477D01*
X119049053Y-76260962D01*
X118869752Y-76546316D01*
X118723532Y-76849945D01*
X118612227Y-77168034D01*
X118612223Y-77168046D01*
X118537233Y-77496602D01*
X118537231Y-77496618D01*
X118499500Y-77831491D01*
X115000500Y-77831491D01*
X115000500Y-71624500D01*
X115020185Y-71557461D01*
X115072989Y-71511706D01*
X115124500Y-71500500D01*
X181875500Y-71500500D01*
X181942539Y-71520185D01*
G37*
G04 #@! TD.AperFunction*
G04 #@! TD*
G04 #@! TA.AperFunction,NonConductor*
G36*
X177741619Y-99629787D02*
G01*
X177756824Y-99629135D01*
X177774464Y-99639431D01*
X177794058Y-99645185D01*
X177804954Y-99657228D01*
X177817167Y-99664357D01*
X177837503Y-99693203D01*
X177844950Y-99707819D01*
X177969890Y-99879786D01*
X178120213Y-100030109D01*
X178292182Y-100155050D01*
X178300946Y-100159516D01*
X178351742Y-100207491D01*
X178368536Y-100275312D01*
X178345998Y-100341447D01*
X178300946Y-100380484D01*
X178292182Y-100384949D01*
X178120213Y-100509890D01*
X177969890Y-100660213D01*
X177844950Y-100832180D01*
X177837503Y-100846797D01*
X177789527Y-100897592D01*
X177727019Y-100914500D01*
X164769452Y-100914500D01*
X164702413Y-100894815D01*
X164656658Y-100842011D01*
X164646714Y-100772853D01*
X164675739Y-100709297D01*
X164681771Y-100702819D01*
X165114591Y-100270000D01*
X165722772Y-99661819D01*
X165784095Y-99628334D01*
X165810453Y-99625500D01*
X177727019Y-99625500D01*
X177741619Y-99629787D01*
G37*
G04 #@! TD.AperFunction*
G04 #@! TA.AperFunction,NonConductor*
G36*
X177794058Y-102185185D02*
G01*
X177837503Y-102233203D01*
X177844950Y-102247819D01*
X177969890Y-102419786D01*
X178120213Y-102570109D01*
X178292182Y-102695050D01*
X178300946Y-102699516D01*
X178351742Y-102747491D01*
X178368536Y-102815312D01*
X178345998Y-102881447D01*
X178300946Y-102920484D01*
X178292182Y-102924949D01*
X178120213Y-103049890D01*
X177969890Y-103200213D01*
X177844950Y-103372180D01*
X177837503Y-103386797D01*
X177789527Y-103437592D01*
X177727019Y-103454500D01*
X163809452Y-103454500D01*
X163742413Y-103434815D01*
X163696658Y-103382011D01*
X163686714Y-103312853D01*
X163715739Y-103249297D01*
X163721771Y-103242819D01*
X164762771Y-102201819D01*
X164824094Y-102168334D01*
X164850452Y-102165500D01*
X177727019Y-102165500D01*
X177794058Y-102185185D01*
G37*
G04 #@! TD.AperFunction*
M02*
