M48
; DRILL file {KiCad 9.0.1} date 2025-05-08T20:41:06+1000
; FORMAT={-:-/ absolute / metric / decimal}
; #@! TF.CreationDate,2025-05-08T20:41:06+10:00
; #@! TF.GenerationSoftware,Kicad,Pcbnew,9.0.1
; #@! TF.FileFunction,Plated,1,2,PTH
FMAT,2
METRIC
; #@! TA.AperFunction,Plated,PTH,ViaDrill
T1C0.400
; #@! TA.AperFunction,Plated,PTH,ComponentDrill
T2C0.950
; #@! TA.AperFunction,Plated,PTH,ComponentDrill
T3C1.000
; #@! TA.AperFunction,Plated,PTH,ComponentDrill
T4C1.100
%
G90
G05
T1
X158.5Y-111.4
X158.5Y-112.9
X158.5Y-117.5
T2
X135.468Y-102.5
X135.468Y-105.0
X135.468Y-107.5
T3
X179.0Y-96.46
X179.0Y-99.0
X179.0Y-101.54
X179.0Y-104.08
X179.0Y-106.62
X179.0Y-109.16
T4
X124.75Y-123.25
X124.75Y-127.75
X131.25Y-123.25
X131.25Y-127.75
X146.25Y-101.74
X146.25Y-108.24
X150.75Y-101.74
X150.75Y-108.24
X165.7Y-82.3
X165.7Y-86.8
X172.2Y-82.3
X172.2Y-86.8
T3
X121.6Y-104.0G85X121.6Y-106.0
G05
X123.6Y-100.3G85X125.6Y-100.3
G05
X127.6Y-104.0G85X127.6Y-106.0
G05
M30
